<mxfile host="app.diagrams.net" agent="Mozilla/5.0 (Macintosh; Intel Mac OS X 10_15_7) AppleWebKit/537.36 (KHTML, like Gecko) Chrome/139.0.0.0 Safari/537.36" version="28.1.1">
  <diagram name="第 1 页" id="_MM_0JAL_mDehR6Rza7M">
    <mxGraphModel dx="2571" dy="1849" grid="1" gridSize="10" guides="1" tooltips="1" connect="1" arrows="1" fold="1" page="1" pageScale="1" pageWidth="827" pageHeight="1169" math="0" shadow="0">
      <root>
        <mxCell id="0" />
        <mxCell id="1" parent="0" />
        <mxCell id="y4o-Q9D-bzdoxVMksY4T-1" value="launch_server.py&lt;div&gt;1. 配置参数读取（prepare_server_args）&lt;/div&gt;&lt;div&gt;2. 服务启动（launch_server）&lt;/div&gt;" style="rounded=1;whiteSpace=wrap;html=1;" parent="1" vertex="1">
          <mxGeometry x="210" y="110" width="250" height="60" as="geometry" />
        </mxCell>
        <mxCell id="y4o-Q9D-bzdoxVMksY4T-2" value="http_server.py&lt;div&gt;launch_server（启动推理引擎、http服务器两大进程）【服务预热】&lt;/div&gt;" style="rounded=1;whiteSpace=wrap;html=1;" parent="1" vertex="1">
          <mxGeometry x="185" y="210" width="325" height="80" as="geometry" />
        </mxCell>
        <mxCell id="y4o-Q9D-bzdoxVMksY4T-3" value="engine.py&lt;div&gt;【Engine类未使用到】&lt;br&gt;&lt;div&gt;_launch_subprocesses【TokenizerManager主进程， Scheduler子进程， DetokenizerManager子进程】&lt;/div&gt;&lt;div&gt;1. 环境配置、端口分配、模型分词器准备&lt;/div&gt;&lt;div&gt;2. 启动Scheduler进程（单节点dp_size = 1, 根据pp、tp启动多个Scheduler子进程； dp_size &amp;gt; 1, 启动DataParallelController）&lt;/div&gt;&lt;div&gt;3. 多节点，非主节点等待Scheduler启动，不启动Tokenizer/Detokenizer&lt;/div&gt;&lt;div&gt;4. 启动Detokenizer、TokenizerManager&lt;/div&gt;&lt;div&gt;5. 初始化模板、等待模型加载完成&lt;/div&gt;&lt;div&gt;6. 返回核心对象（TokenizerManager、TemplateManager、scheduler_info）&lt;/div&gt;&lt;div&gt;&lt;br&gt;&lt;/div&gt;&lt;/div&gt;" style="rounded=1;whiteSpace=wrap;html=1;" parent="1" vertex="1">
          <mxGeometry x="100" y="330" width="580" height="170" as="geometry" />
        </mxCell>
        <mxCell id="y4o-Q9D-bzdoxVMksY4T-4" value="data_parallel_controller.py&lt;div&gt;&lt;br&gt;&lt;/div&gt;&lt;div&gt;&lt;span style=&quot;background-color: transparent; color: light-dark(rgb(0, 0, 0), rgb(255, 255, 255));&quot;&gt;run_data_parallel_controller_process 方法&lt;/span&gt;&lt;/div&gt;&lt;div&gt;1. 负载均衡 + 启动DataParallelController实例化（启动 event_loop事件循环&lt;span style=&quot;background-color: transparent; color: light-dark(rgb(0, 0, 0), rgb(255, 255, 255));&quot;&gt;）&lt;/span&gt;&lt;/div&gt;&lt;div&gt;2. 子节点与主节点进行信息同步，主节点进入事件循环&lt;/div&gt;&lt;div&gt;&lt;br&gt;&lt;/div&gt;&lt;div&gt;DataParallelController类【轮询事件、三种负载均衡方法、三种并行策略】&lt;/div&gt;&lt;div&gt;1. __init__ 负载均衡配置、进程间通信初始化、数据并行worker启动、worker通信管道初始化&lt;/div&gt;&lt;div&gt;self.dispatching配置负载均衡策略分发推理请求&lt;/div&gt;&lt;div&gt;2. 启动 launch_dp_attention_scheduler 方法 -&amp;gt; launch_tensor_parallel_group方法（配置tp、pp的rank）最终调用 run_scheduler_process 方法启动scheduler 【其中不同的launch 并行方法最终都调用到&lt;span style=&quot;background-color: transparent; color: light-dark(rgb(0, 0, 0), rgb(255, 255, 255));&quot;&gt;run_scheduler_process方法&lt;/span&gt;&lt;span style=&quot;background-color: transparent; color: light-dark(rgb(0, 0, 0), rgb(255, 255, 255));&quot;&gt;】&lt;/span&gt;&lt;/div&gt;" style="rounded=1;whiteSpace=wrap;html=1;" parent="1" vertex="1">
          <mxGeometry x="120" y="540" width="530" height="190" as="geometry" />
        </mxCell>
        <mxCell id="y4o-Q9D-bzdoxVMksY4T-5" value="scheduler.py&lt;div&gt;&lt;br&gt;&lt;/div&gt;&lt;div&gt;run_scheduler_process 方法&lt;/div&gt;&lt;div&gt;生成一个 Scheduler类的对象 【确定scheduler的分布式方法】&lt;/div&gt;&lt;div&gt;启动 event_loop_overlap方法、event_loop_normal方法、prefill\decode方法&lt;/div&gt;" style="rounded=1;whiteSpace=wrap;html=1;" parent="1" vertex="1">
          <mxGeometry x="110" y="770" width="560" height="220" as="geometry" />
        </mxCell>
        <mxCell id="y4o-Q9D-bzdoxVMksY4T-6" value="&lt;div&gt;&lt;font style=&quot;font-size: 18px;&quot;&gt;deepep.py&lt;/font&gt;&lt;/div&gt;&lt;div&gt;_Stage类（EP通信状态枚举类）&lt;/div&gt;&lt;div&gt;&lt;br&gt;&lt;/div&gt;&lt;div&gt;DeepEPBuffer类（封装deep_ep的Buffer为FP8）&lt;/div&gt;&lt;div&gt;&lt;br&gt;&lt;/div&gt;&lt;div&gt;_DeepEPDispatcherImpBase&lt;/div&gt;&lt;div&gt;_DeepEPDispatcherImpNormal&lt;/div&gt;&lt;div&gt;_DeepEPDispatcherImpLowLatency&lt;/div&gt;&lt;div style=&quot;text-align: left;&quot;&gt;_get_buffer：初始化Buffer的对象，分配缓冲区&lt;/div&gt;&lt;div style=&quot;text-align: left;&quot;&gt;dispatch方法：&lt;span style=&quot;background-color: transparent; color: light-dark(rgb(0, 0, 0), rgb(255, 255, 255));&quot;&gt;DeepEPDispatcher对象调用&lt;/span&gt;&lt;/div&gt;&lt;div style=&quot;text-align: left;&quot;&gt;combine方法：&lt;span style=&quot;background-color: transparent; color: light-dark(rgb(0, 0, 0), rgb(255, 255, 255));&quot;&gt;DeepEPDispatcher对象调用&lt;/span&gt;&lt;/div&gt;&lt;div&gt;&lt;br&gt;&lt;/div&gt;DeepEPDispatcher类&lt;div&gt;__init__方法：初始化DeepEPDispatcherImpBase类&lt;br&gt;&lt;div style=&quot;text-align: left;&quot;&gt;dispatch方法：完成数据分发（数据准备 + 数据通信）&lt;/div&gt;&lt;div style=&quot;text-align: left;&quot;&gt;combine方法：完成数据合并&lt;span style=&quot;background-color: transparent; color: light-dark(rgb(0, 0, 0), rgb(255, 255, 255));&quot;&gt;（数据准备和数据分发 + 等待通信完成和统计）&lt;/span&gt;&lt;/div&gt;&lt;div style=&quot;text-align: left;&quot;&gt;_update_stage 更新EP通信状态&lt;/div&gt;&lt;/div&gt;" style="rounded=1;whiteSpace=wrap;html=1;" parent="1" vertex="1">
          <mxGeometry x="120" y="1480" width="450" height="310" as="geometry" />
        </mxCell>
        <mxCell id="y4o-Q9D-bzdoxVMksY4T-7" value="&lt;font style=&quot;font-size: 18px;&quot;&gt;utils.py&lt;/font&gt;&lt;div&gt;DeepEPMode类（通信模式选择枚举类）&lt;/div&gt;" style="rounded=1;whiteSpace=wrap;html=1;" parent="1" vertex="1">
          <mxGeometry x="140" y="1280" width="356" height="100" as="geometry" />
        </mxCell>
        <mxCell id="-6-FvPc2AzdQoyf2nDTh-1" value="deepseek_v2.py&lt;div&gt;&lt;br&gt;&lt;/div&gt;&lt;div&gt;DeepseekV2MoE类&lt;/div&gt;&lt;div&gt;使用MoE的话： forward -&amp;gt; forward_deepep方法&lt;/div&gt;" style="rounded=1;whiteSpace=wrap;html=1;" vertex="1" parent="1">
          <mxGeometry x="630" y="1540" width="550" height="370" as="geometry" />
        </mxCell>
        <mxCell id="-6-FvPc2AzdQoyf2nDTh-2" value="&lt;font style=&quot;font-size: 18px;&quot;&gt;eplb/expert_location_dispatch.py（全）&lt;/font&gt;&lt;div&gt;&lt;span style=&quot;font-size: 18px;&quot;&gt;&lt;br&gt;&lt;/span&gt;&lt;div&gt;ExpertLocationDispatchInfo类（描述了每个专家位于卡号的类）-&amp;gt; 调用get_global_expert_location_metadata方法获取meta数据信息&lt;/div&gt;&lt;div&gt;transform_select_experts_inputs方法（返回用于选择专家的logits）&lt;/div&gt;&lt;div&gt;topk_ids_logical_to_physical方法（用于返回逻辑和物理专家映射关系）&lt;/div&gt;&lt;/div&gt;" style="rounded=1;whiteSpace=wrap;html=1;" vertex="1" parent="1">
          <mxGeometry x="340" y="2690" width="465" height="140" as="geometry" />
        </mxCell>
        <mxCell id="-6-FvPc2AzdQoyf2nDTh-3" value="&lt;font style=&quot;font-size: 18px;&quot;&gt;layers/moe/ep_moe/layer.py （全）&lt;/font&gt;&lt;div&gt;&lt;font style=&quot;font-size: 12px;&quot;&gt;包含 EPMoE、DeepEPMoE、FlashInferEPMoE 类&amp;nbsp;&lt;/font&gt;&lt;/div&gt;&lt;div&gt;&lt;font style=&quot;font-size: 12px;&quot;&gt;以及get_moe_impl_class选择哪个类的方法&lt;/font&gt;&lt;/div&gt;&lt;div&gt;&lt;font style=&quot;font-size: 12px;&quot;&gt;&lt;br&gt;&lt;/font&gt;&lt;div&gt;DeepEPMoE类实现forward&lt;/div&gt;&lt;div style=&quot;text-align: left;&quot;&gt;dispatch -&amp;gt; 调用&lt;span style=&quot;background-color: transparent; color: light-dark(rgb(0, 0, 0), rgb(255, 255, 255)); text-align: center;&quot;&gt;MaybeTboDeepEPDispatcher类方法&lt;/span&gt;&lt;/div&gt;&lt;div style=&quot;text-align: left;&quot;&gt;moe_impl -&amp;gt; forward_deepgemm_contiguous&lt;/div&gt;&lt;div style=&quot;text-align: left;&quot;&gt;combine -&amp;gt; 调用&lt;span style=&quot;background-color: transparent; color: light-dark(rgb(0, 0, 0), rgb(255, 255, 255)); text-align: center;&quot;&gt;MaybeTboDeepEPDispatcher类方法&lt;/span&gt;&lt;/div&gt;&lt;div style=&quot;text-align: left;&quot;&gt;&lt;br&gt;&lt;/div&gt;&lt;/div&gt;" style="rounded=1;whiteSpace=wrap;html=1;" vertex="1" parent="1">
          <mxGeometry x="-30" y="3253" width="425" height="160" as="geometry" />
        </mxCell>
        <mxCell id="-6-FvPc2AzdQoyf2nDTh-4" value="&lt;font style=&quot;font-size: 18px;&quot;&gt;two_batch_overlap.py&lt;/font&gt;&lt;div&gt;&lt;br&gt;&lt;div&gt;MaybeTboDeepEPDispatcher类&lt;/div&gt;&lt;div&gt;管理两个DeepEPDispatcher类&lt;/div&gt;&lt;/div&gt;" style="rounded=1;whiteSpace=wrap;html=1;" vertex="1" parent="1">
          <mxGeometry x="405" y="3070" width="245" height="100" as="geometry" />
        </mxCell>
        <mxCell id="-6-FvPc2AzdQoyf2nDTh-5" value="" style="endArrow=classic;html=1;rounded=0;exitX=0.5;exitY=0;exitDx=0;exitDy=0;entryX=0;entryY=0.5;entryDx=0;entryDy=0;" edge="1" parent="1" source="-6-FvPc2AzdQoyf2nDTh-3" target="-6-FvPc2AzdQoyf2nDTh-4">
          <mxGeometry width="50" height="50" relative="1" as="geometry">
            <mxPoint x="420" y="3290" as="sourcePoint" />
            <mxPoint x="470" y="3240" as="targetPoint" />
          </mxGeometry>
        </mxCell>
        <mxCell id="-6-FvPc2AzdQoyf2nDTh-6" value="&lt;font style=&quot;font-size: 12px;&quot;&gt;5.7 Dispatcher类方法调用&lt;/font&gt;" style="edgeLabel;html=1;align=center;verticalAlign=middle;resizable=0;points=[];" vertex="1" connectable="0" parent="-6-FvPc2AzdQoyf2nDTh-5">
          <mxGeometry x="0.0544" y="2" relative="1" as="geometry">
            <mxPoint as="offset" />
          </mxGeometry>
        </mxCell>
        <mxCell id="-6-FvPc2AzdQoyf2nDTh-7" value="&lt;font style=&quot;font-size: 18px;&quot;&gt;layers/moe/token_dispatcher/deepep.py（全）&lt;/font&gt;&lt;div&gt;&lt;br&gt;&lt;/div&gt;&lt;div&gt;&lt;div&gt;_Stage类（EP通信状态枚举类）&lt;/div&gt;&lt;div&gt;&lt;br&gt;&lt;/div&gt;&lt;div&gt;DeepEPBuffer类（封装deep_ep的Buffer为FP8）&lt;/div&gt;&lt;div&gt;&lt;br&gt;&lt;/div&gt;&lt;div&gt;_DeepEPDispatcherImpBase&lt;/div&gt;&lt;div&gt;_DeepEPDispatcherImpNormal&lt;/div&gt;&lt;div&gt;_DeepEPDispatcherImpLowLatency&lt;/div&gt;&lt;div style=&quot;text-align: left;&quot;&gt;_get_buffer：初始化Buffer的对象，分配缓冲区&lt;/div&gt;&lt;div style=&quot;text-align: left;&quot;&gt;dispatch方法：&lt;span style=&quot;background-color: transparent; color: light-dark(rgb(0, 0, 0), rgb(255, 255, 255));&quot;&gt;DeepEPDispatcher对象调用&lt;/span&gt;&lt;/div&gt;&lt;div style=&quot;text-align: left;&quot;&gt;combine方法：&lt;span style=&quot;background-color: transparent; color: light-dark(rgb(0, 0, 0), rgb(255, 255, 255));&quot;&gt;DeepEPDispatcher对象调用&lt;/span&gt;&lt;/div&gt;&lt;div&gt;&lt;br&gt;&lt;/div&gt;DeepEPDispatcher类&lt;div&gt;__init__方法：初始化DeepEPDispatcherImpBase类&lt;br&gt;&lt;div style=&quot;text-align: left;&quot;&gt;dispatch方法：完成数据分发（数据准备 + 数据通信）&lt;/div&gt;&lt;div style=&quot;text-align: left;&quot;&gt;combine方法：完成数据合并&lt;span style=&quot;background-color: transparent; color: light-dark(rgb(0, 0, 0), rgb(255, 255, 255));&quot;&gt;（数据准备和数据分发 + 等待通信完成和统计）&lt;/span&gt;&lt;/div&gt;&lt;div style=&quot;text-align: left;&quot;&gt;_update_stage 更新EP通信状态&lt;/div&gt;&lt;/div&gt;&lt;/div&gt;" style="rounded=1;whiteSpace=wrap;html=1;" vertex="1" parent="1">
          <mxGeometry x="600" y="3210" width="430" height="270" as="geometry" />
        </mxCell>
        <mxCell id="-6-FvPc2AzdQoyf2nDTh-9" value="" style="endArrow=classic;html=1;rounded=0;exitX=1;exitY=0.5;exitDx=0;exitDy=0;entryX=0.5;entryY=0;entryDx=0;entryDy=0;" edge="1" parent="1" source="-6-FvPc2AzdQoyf2nDTh-4" target="-6-FvPc2AzdQoyf2nDTh-7">
          <mxGeometry width="50" height="50" relative="1" as="geometry">
            <mxPoint x="900" y="3590" as="sourcePoint" />
            <mxPoint x="950" y="3540" as="targetPoint" />
          </mxGeometry>
        </mxCell>
        <mxCell id="-6-FvPc2AzdQoyf2nDTh-10" value="&lt;font style=&quot;font-size: 12px;&quot;&gt;5.8 调用DeepEPDispatcher类的方法&lt;/font&gt;" style="edgeLabel;html=1;align=center;verticalAlign=middle;resizable=0;points=[];" vertex="1" connectable="0" parent="-6-FvPc2AzdQoyf2nDTh-9">
          <mxGeometry x="0.0209" y="-3" relative="1" as="geometry">
            <mxPoint as="offset" />
          </mxGeometry>
        </mxCell>
        <mxCell id="-6-FvPc2AzdQoyf2nDTh-12" value="&lt;font style=&quot;font-size: 18px;&quot;&gt;deep_ep三方库&lt;/font&gt;&lt;div&gt;&lt;font style=&quot;font-size: 12px;&quot;&gt;涉及到Dispatch、Combine的通信等&lt;/font&gt;&lt;/div&gt;" style="rounded=1;whiteSpace=wrap;html=1;" vertex="1" parent="1">
          <mxGeometry x="827" y="2980" width="230" height="110" as="geometry" />
        </mxCell>
        <mxCell id="-6-FvPc2AzdQoyf2nDTh-13" value="" style="endArrow=classic;html=1;rounded=0;entryX=0.5;entryY=1;entryDx=0;entryDy=0;" edge="1" parent="1" target="-6-FvPc2AzdQoyf2nDTh-12">
          <mxGeometry width="50" height="50" relative="1" as="geometry">
            <mxPoint x="980" y="3220" as="sourcePoint" />
            <mxPoint x="1030" y="3170" as="targetPoint" />
          </mxGeometry>
        </mxCell>
        <mxCell id="-6-FvPc2AzdQoyf2nDTh-25" value="5.9 调用deep_ep实现deepep通信" style="edgeLabel;html=1;align=center;verticalAlign=middle;resizable=0;points=[];" vertex="1" connectable="0" parent="-6-FvPc2AzdQoyf2nDTh-13">
          <mxGeometry x="-0.147" y="1" relative="1" as="geometry">
            <mxPoint as="offset" />
          </mxGeometry>
        </mxCell>
        <mxCell id="-6-FvPc2AzdQoyf2nDTh-14" value="&lt;font style=&quot;font-size: 18px;&quot;&gt;deepseek_v2.py&lt;/font&gt;&lt;div&gt;&lt;br&gt;&lt;/div&gt;&lt;div&gt;DeepseekV2MoE类 （Deocder的MoE层）&amp;nbsp;&lt;/div&gt;&lt;div&gt;__init__ -&amp;gt; 初始化gate, topk, experts对象&lt;/div&gt;&lt;div&gt;5.2 forward_deepep方法 -&amp;gt; 计算gate、topk_idx， 调用experts.forward方法&lt;/div&gt;" style="rounded=1;whiteSpace=wrap;html=1;" vertex="1" parent="1">
          <mxGeometry x="-380" y="2990" width="440" height="110" as="geometry" />
        </mxCell>
        <mxCell id="-6-FvPc2AzdQoyf2nDTh-16" value="" style="endArrow=classic;html=1;rounded=0;exitX=0.5;exitY=1;exitDx=0;exitDy=0;" edge="1" parent="1" source="-6-FvPc2AzdQoyf2nDTh-14">
          <mxGeometry width="50" height="50" relative="1" as="geometry">
            <mxPoint x="300" y="3610" as="sourcePoint" />
            <mxPoint x="60" y="3250" as="targetPoint" />
          </mxGeometry>
        </mxCell>
        <mxCell id="-6-FvPc2AzdQoyf2nDTh-17" value="&lt;font style=&quot;font-size: 12px;&quot;&gt;1.2 experts初始化为DeepEPMoE类对象，&lt;/font&gt;&lt;div&gt;&lt;font style=&quot;font-size: 12px;&quot;&gt;调用DeepEPMoE类的方法&lt;/font&gt;&lt;/div&gt;" style="edgeLabel;html=1;align=center;verticalAlign=middle;resizable=0;points=[];" vertex="1" connectable="0" parent="-6-FvPc2AzdQoyf2nDTh-16">
          <mxGeometry x="-0.2" relative="1" as="geometry">
            <mxPoint x="-8" y="-10" as="offset" />
          </mxGeometry>
        </mxCell>
        <mxCell id="-6-FvPc2AzdQoyf2nDTh-18" value="&lt;font style=&quot;font-size: 18px;&quot;&gt;layers/moe/topk.py&lt;/font&gt;&lt;div&gt;&lt;br&gt;&lt;/div&gt;&lt;div&gt;TopK类&lt;/div&gt;&lt;div&gt;forward_cuda方法 -&amp;gt; 调用select_experts -&amp;gt; 调用biased_grouped_topk_gpu -&amp;gt; 调用moe_fused_gate方法/biased_grouped_topk_impl方法 -&amp;gt; 调用&lt;span style=&quot;background-color: transparent; color: light-dark(rgb(0, 0, 0), rgb(255, 255, 255));&quot;&gt;topk_ids_logical_to_physical方法&lt;/span&gt;&lt;/div&gt;" style="rounded=1;whiteSpace=wrap;html=1;" vertex="1" parent="1">
          <mxGeometry x="230" y="2910" width="550" height="120" as="geometry" />
        </mxCell>
        <mxCell id="-6-FvPc2AzdQoyf2nDTh-20" value="" style="endArrow=classic;html=1;rounded=0;exitX=0.5;exitY=0;exitDx=0;exitDy=0;entryX=0.5;entryY=1;entryDx=0;entryDy=0;" edge="1" parent="1" source="-6-FvPc2AzdQoyf2nDTh-18" target="-6-FvPc2AzdQoyf2nDTh-2">
          <mxGeometry width="50" height="50" relative="1" as="geometry">
            <mxPoint x="340" y="2770" as="sourcePoint" />
            <mxPoint x="390" y="2720" as="targetPoint" />
          </mxGeometry>
        </mxCell>
        <mxCell id="-6-FvPc2AzdQoyf2nDTh-21" value="5.4 调用topk_ids_logical_to_physical方法放回expert卡信息" style="edgeLabel;html=1;align=center;verticalAlign=middle;resizable=0;points=[];" vertex="1" connectable="0" parent="-6-FvPc2AzdQoyf2nDTh-20">
          <mxGeometry x="0.0198" relative="1" as="geometry">
            <mxPoint as="offset" />
          </mxGeometry>
        </mxCell>
        <mxCell id="-6-FvPc2AzdQoyf2nDTh-23" value="" style="endArrow=classic;html=1;rounded=0;exitX=0.5;exitY=0;exitDx=0;exitDy=0;entryX=-0.003;entryY=0.431;entryDx=0;entryDy=0;entryPerimeter=0;" edge="1" parent="1" source="-6-FvPc2AzdQoyf2nDTh-14" target="-6-FvPc2AzdQoyf2nDTh-18">
          <mxGeometry width="50" height="50" relative="1" as="geometry">
            <mxPoint x="90" y="3070" as="sourcePoint" />
            <mxPoint x="140" y="3020" as="targetPoint" />
          </mxGeometry>
        </mxCell>
        <mxCell id="-6-FvPc2AzdQoyf2nDTh-24" value="1.1 topk初始化为TopK类对象" style="edgeLabel;html=1;align=center;verticalAlign=middle;resizable=0;points=[];" vertex="1" connectable="0" parent="-6-FvPc2AzdQoyf2nDTh-23">
          <mxGeometry x="0.0561" y="2" relative="1" as="geometry">
            <mxPoint as="offset" />
          </mxGeometry>
        </mxCell>
        <mxCell id="-6-FvPc2AzdQoyf2nDTh-26" value="&lt;font style=&quot;font-size: 18px;&quot;&gt;eplb/eplb_manager.py&lt;/font&gt;&lt;div&gt;&lt;span style=&quot;font-size: 18px;&quot;&gt;&lt;br&gt;&lt;/span&gt;&lt;div&gt;&lt;font style=&quot;font-size: 12px;&quot;&gt;EPLBManager类&lt;/font&gt;&lt;/div&gt;&lt;div style=&quot;text-align: left;&quot;&gt;&lt;font style=&quot;font-size: 12px;&quot;&gt;on_forward_pass_end方法 -&amp;gt; _entrypoint -&amp;gt; rebalance 方法&lt;/font&gt;&lt;/div&gt;&lt;div style=&quot;text-align: left;&quot;&gt;&lt;font style=&quot;font-size: 12px;&quot;&gt;rebalance方法 -&amp;gt;&amp;nbsp;&lt;/font&gt;&lt;/div&gt;&lt;div style=&quot;text-align: left;&quot;&gt;(1)get_global_expert_distribution_recorder 获取专家调用次数&lt;/div&gt;&lt;div style=&quot;text-align: left;&quot;&gt;(2)ExpertLocationMetadata.init_by_eplb 专家位置再分配&lt;/div&gt;&lt;div style=&quot;text-align: left;&quot;&gt;(3)分块，update_expert_location 分块更新专家位置&lt;/div&gt;&lt;div style=&quot;text-align: left;&quot;&gt;&lt;br&gt;&lt;/div&gt;&lt;/div&gt;" style="rounded=1;whiteSpace=wrap;html=1;" vertex="1" parent="1">
          <mxGeometry x="-290" y="2730" width="430" height="150" as="geometry" />
        </mxCell>
        <mxCell id="-6-FvPc2AzdQoyf2nDTh-28" value="&lt;font style=&quot;font-size: 18px;&quot;&gt;model_executor/model_runner.py&lt;/font&gt;&lt;div&gt;&lt;br&gt;&lt;/div&gt;&lt;div&gt;ModelRunner类&lt;/div&gt;&lt;div style=&quot;text-align: left;&quot;&gt;initialize方法 -&amp;gt; (1)调用set_global_expert_location_metadata、 compute_initial_expert_location_metadata、(2)set_global_expert_distribution_recoder方法&lt;/div&gt;&lt;div style=&quot;text-align: left;&quot;&gt;(3) 初始化 eplb_manager对象 - EPLBManager()类&lt;/div&gt;&lt;div style=&quot;text-align: left;&quot;&gt;(4) 初始化expert_location_updater对象 -&amp;nbsp; ExpertLocationUpdater()类&lt;/div&gt;&lt;div style=&quot;text-align: left;&quot;&gt;&lt;br&gt;&lt;/div&gt;&lt;div style=&quot;text-align: left;&quot;&gt;forward方法调用 on_forward_pass_end方法，开始实现eplb&lt;/div&gt;&lt;div style=&quot;text-align: left;&quot;&gt;update_expert_location方法 -&amp;gt; ExpertLocationUpdater.update方法&lt;/div&gt;&lt;div&gt;&lt;br&gt;&lt;/div&gt;" style="rounded=1;whiteSpace=wrap;html=1;" vertex="1" parent="1">
          <mxGeometry x="-410" y="2440" width="470" height="170" as="geometry" />
        </mxCell>
        <mxCell id="-6-FvPc2AzdQoyf2nDTh-29" value="&lt;font style=&quot;font-size: 18px;&quot;&gt;eplb/expert_location.py&lt;/font&gt;&lt;div&gt;&lt;br&gt;&lt;/div&gt;&lt;div&gt;ExpertLocationMetadata类（存储专家位置信息类）&lt;/div&gt;&lt;div style=&quot;text-align: left;&quot;&gt;compute_initial_expert_location_metadata方法 -&amp;gt; 调用init_by_eplb方法实现初始化&lt;/div&gt;&lt;div style=&quot;text-align: left;&quot;&gt;init_by_eplb方法 -&amp;gt; 调用&amp;nbsp;rebalance_experts 方法确定具体位置信息&lt;/div&gt;&lt;div style=&quot;text-align: left;&quot;&gt;&lt;span style=&quot;font-size: 11px; text-align: center; text-wrap-mode: nowrap; background-color: rgb(255, 255, 255);&quot;&gt;get_global_expert_location_metadata -&amp;gt; 得到location_metadata信息&lt;/span&gt;&lt;/div&gt;&lt;div style=&quot;text-align: left;&quot;&gt;&lt;span style=&quot;font-size: 11px; text-align: center; text-wrap-mode: nowrap; background-color: rgb(255, 255, 255);&quot;&gt;set_global_expert_location_metadata&amp;nbsp; -&amp;gt; 设置location_metadata信息&lt;/span&gt;&lt;/div&gt;&lt;div style=&quot;text-align: left;&quot;&gt;&lt;span style=&quot;font-size: 11px; text-align: center; text-wrap-mode: nowrap; background-color: rgb(255, 255, 255);&quot;&gt;&lt;br&gt;&lt;/span&gt;&lt;/div&gt;&lt;div style=&quot;text-align: left;&quot;&gt;&lt;br&gt;&lt;/div&gt;" style="rounded=1;whiteSpace=wrap;html=1;" vertex="1" parent="1">
          <mxGeometry x="340" y="2450" width="450" height="150" as="geometry" />
        </mxCell>
        <mxCell id="-6-FvPc2AzdQoyf2nDTh-30" value="" style="endArrow=classic;html=1;rounded=0;exitX=0.25;exitY=1;exitDx=0;exitDy=0;entryX=0.25;entryY=0;entryDx=0;entryDy=0;" edge="1" parent="1" source="-6-FvPc2AzdQoyf2nDTh-28" target="-6-FvPc2AzdQoyf2nDTh-26">
          <mxGeometry width="50" height="50" relative="1" as="geometry">
            <mxPoint x="22.5" y="2940" as="sourcePoint" />
            <mxPoint x="72.5" y="2890" as="targetPoint" />
          </mxGeometry>
        </mxCell>
        <mxCell id="-6-FvPc2AzdQoyf2nDTh-32" value="5. 调用&lt;span style=&quot;font-size: 12px; text-align: left; text-wrap-mode: wrap; background-color: rgb(236, 236, 236);&quot;&gt;on_forward_pass_end&lt;/span&gt;&lt;div&gt;&lt;span style=&quot;font-size: 12px; text-align: left; text-wrap-mode: wrap; background-color: rgb(236, 236, 236);&quot;&gt;方法实现专家再分配&lt;/span&gt;&lt;/div&gt;" style="edgeLabel;html=1;align=center;verticalAlign=middle;resizable=0;points=[];" vertex="1" connectable="0" parent="-6-FvPc2AzdQoyf2nDTh-30">
          <mxGeometry x="-0.0361" relative="1" as="geometry">
            <mxPoint as="offset" />
          </mxGeometry>
        </mxCell>
        <mxCell id="-6-FvPc2AzdQoyf2nDTh-31" value="" style="endArrow=classic;html=1;rounded=0;exitX=1;exitY=0.25;exitDx=0;exitDy=0;entryX=0.321;entryY=1.019;entryDx=0;entryDy=0;entryPerimeter=0;" edge="1" parent="1" source="-6-FvPc2AzdQoyf2nDTh-26" target="-6-FvPc2AzdQoyf2nDTh-41">
          <mxGeometry width="50" height="50" relative="1" as="geometry">
            <mxPoint x="102.5" y="2760" as="sourcePoint" />
            <mxPoint x="152.5" y="2710" as="targetPoint" />
          </mxGeometry>
        </mxCell>
        <mxCell id="-6-FvPc2AzdQoyf2nDTh-53" value="6. 得到专家调用次数信息" style="edgeLabel;html=1;align=center;verticalAlign=middle;resizable=0;points=[];" vertex="1" connectable="0" parent="-6-FvPc2AzdQoyf2nDTh-31">
          <mxGeometry x="-0.2043" y="-2" relative="1" as="geometry">
            <mxPoint as="offset" />
          </mxGeometry>
        </mxCell>
        <mxCell id="-6-FvPc2AzdQoyf2nDTh-33" value="" style="endArrow=classic;html=1;rounded=0;exitX=1;exitY=0.5;exitDx=0;exitDy=0;entryX=-0.004;entryY=0.548;entryDx=0;entryDy=0;entryPerimeter=0;" edge="1" parent="1" source="-6-FvPc2AzdQoyf2nDTh-28" target="-6-FvPc2AzdQoyf2nDTh-29">
          <mxGeometry width="50" height="50" relative="1" as="geometry">
            <mxPoint x="90" y="2540" as="sourcePoint" />
            <mxPoint x="250" y="2540" as="targetPoint" />
          </mxGeometry>
        </mxCell>
        <mxCell id="-6-FvPc2AzdQoyf2nDTh-49" value="1. 初始化专家位置信息" style="edgeLabel;html=1;align=center;verticalAlign=middle;resizable=0;points=[];" vertex="1" connectable="0" parent="-6-FvPc2AzdQoyf2nDTh-33">
          <mxGeometry x="-0.1189" y="1" relative="1" as="geometry">
            <mxPoint as="offset" />
          </mxGeometry>
        </mxCell>
        <mxCell id="-6-FvPc2AzdQoyf2nDTh-34" value="&lt;font style=&quot;font-size: 18px;&quot;&gt;eplb/eplb_algorithm/deepseek.py&lt;/font&gt;&lt;div&gt;&lt;br&gt;&lt;/div&gt;&lt;div&gt;rebalance_experts方法 -&amp;gt; 实现专家的平衡&lt;/div&gt;" style="rounded=1;whiteSpace=wrap;html=1;" vertex="1" parent="1">
          <mxGeometry x="890" y="2600" width="380" height="120" as="geometry" />
        </mxCell>
        <mxCell id="-6-FvPc2AzdQoyf2nDTh-35" value="" style="endArrow=classic;html=1;rounded=0;exitX=1;exitY=0.5;exitDx=0;exitDy=0;entryX=0;entryY=0.5;entryDx=0;entryDy=0;" edge="1" parent="1" source="-6-FvPc2AzdQoyf2nDTh-29" target="-6-FvPc2AzdQoyf2nDTh-34">
          <mxGeometry width="50" height="50" relative="1" as="geometry">
            <mxPoint x="570" y="2940" as="sourcePoint" />
            <mxPoint x="620" y="2890" as="targetPoint" />
          </mxGeometry>
        </mxCell>
        <mxCell id="-6-FvPc2AzdQoyf2nDTh-56" value="8.重新初始化专家策略&lt;div&gt;调用&lt;span style=&quot;font-size: 12px; text-wrap-mode: wrap; background-color: rgb(236, 236, 236);&quot;&gt;rebalance_experts&lt;/span&gt;&lt;/div&gt;" style="edgeLabel;html=1;align=center;verticalAlign=middle;resizable=0;points=[];" vertex="1" connectable="0" parent="-6-FvPc2AzdQoyf2nDTh-35">
          <mxGeometry x="-0.3452" relative="1" as="geometry">
            <mxPoint x="31" as="offset" />
          </mxGeometry>
        </mxCell>
        <mxCell id="-6-FvPc2AzdQoyf2nDTh-36" value="" style="endArrow=classic;html=1;rounded=0;exitX=0.5;exitY=0;exitDx=0;exitDy=0;entryX=0.5;entryY=1;entryDx=0;entryDy=0;" edge="1" parent="1" source="-6-FvPc2AzdQoyf2nDTh-2" target="-6-FvPc2AzdQoyf2nDTh-29">
          <mxGeometry width="50" height="50" relative="1" as="geometry">
            <mxPoint x="290" y="3010" as="sourcePoint" />
            <mxPoint x="180" y="2740" as="targetPoint" />
          </mxGeometry>
        </mxCell>
        <mxCell id="-6-FvPc2AzdQoyf2nDTh-37" value="5.5 调用get_global_expert_location_metadata函数获取location_metadata信息" style="edgeLabel;html=1;align=center;verticalAlign=middle;resizable=0;points=[];" vertex="1" connectable="0" parent="-6-FvPc2AzdQoyf2nDTh-36">
          <mxGeometry x="0.0196" y="1" relative="1" as="geometry">
            <mxPoint as="offset" />
          </mxGeometry>
        </mxCell>
        <mxCell id="-6-FvPc2AzdQoyf2nDTh-38" value="&lt;font style=&quot;font-size: 18px;&quot;&gt;managers/tp_worker.py&lt;/font&gt;&lt;div&gt;&lt;br&gt;&lt;/div&gt;&lt;div&gt;TpModelWorker类&lt;/div&gt;&lt;div&gt;&lt;br&gt;&lt;/div&gt;&lt;div style=&quot;text-align: left;&quot;&gt;__init__方法 -&amp;gt; 初始化ModelRunner对象&lt;/div&gt;&lt;div style=&quot;text-align: left;&quot;&gt;forward_batch_generation方法 -&amp;gt; 初始化forward_batch数据&lt;/div&gt;&lt;div&gt;&lt;br&gt;&lt;/div&gt;" style="rounded=1;whiteSpace=wrap;html=1;" vertex="1" parent="1">
          <mxGeometry x="-860" y="2200" width="420" height="165" as="geometry" />
        </mxCell>
        <mxCell id="-6-FvPc2AzdQoyf2nDTh-39" value="" style="endArrow=classic;html=1;rounded=0;entryX=0;entryY=0.5;entryDx=0;entryDy=0;exitX=1;exitY=0.5;exitDx=0;exitDy=0;" edge="1" parent="1" source="-6-FvPc2AzdQoyf2nDTh-38" target="-6-FvPc2AzdQoyf2nDTh-28">
          <mxGeometry width="50" height="50" relative="1" as="geometry">
            <mxPoint x="-480" y="2510" as="sourcePoint" />
            <mxPoint x="-420" y="2380" as="targetPoint" />
          </mxGeometry>
        </mxCell>
        <mxCell id="-6-FvPc2AzdQoyf2nDTh-40" value="3. forward_batch_generation调用&lt;div&gt;model_runner的forward方法、sample方法&lt;/div&gt;" style="edgeLabel;html=1;align=center;verticalAlign=middle;resizable=0;points=[];" vertex="1" connectable="0" parent="-6-FvPc2AzdQoyf2nDTh-39">
          <mxGeometry x="-0.0829" y="1" relative="1" as="geometry">
            <mxPoint as="offset" />
          </mxGeometry>
        </mxCell>
        <mxCell id="-6-FvPc2AzdQoyf2nDTh-41" value="&lt;font style=&quot;font-size: 18px;&quot;&gt;eplb/expert_distribution.py&lt;/font&gt;&lt;div&gt;&lt;font style=&quot;font-size: 18px;&quot;&gt;&lt;br&gt;&lt;/font&gt;&lt;/div&gt;&lt;div&gt;&lt;font style=&quot;font-size: 12px;&quot;&gt;ExpertDistributionRecoder类（分布式情况下专家的分布）&lt;/font&gt;&lt;/div&gt;&lt;div style=&quot;text-align: left;&quot;&gt;_ExpertDistributionRecoderNoop -&amp;gt; 跳过不记录的类&lt;/div&gt;&lt;div style=&quot;text-align: left;&quot;&gt;_ExpertDistributionRecoderReal类 -&amp;gt; 真实记录的类&lt;/div&gt;" style="rounded=1;whiteSpace=wrap;html=1;" vertex="1" parent="1">
          <mxGeometry x="240" y="2200" width="390" height="140" as="geometry" />
        </mxCell>
        <mxCell id="-6-FvPc2AzdQoyf2nDTh-42" value="" style="endArrow=classic;html=1;rounded=0;entryX=0.75;entryY=1;entryDx=0;entryDy=0;exitX=0.79;exitY=-0.033;exitDx=0;exitDy=0;exitPerimeter=0;" edge="1" parent="1" source="-6-FvPc2AzdQoyf2nDTh-26" target="-6-FvPc2AzdQoyf2nDTh-28">
          <mxGeometry width="50" height="50" relative="1" as="geometry">
            <mxPoint x="-20" y="2730" as="sourcePoint" />
            <mxPoint x="30" y="2680" as="targetPoint" />
          </mxGeometry>
        </mxCell>
        <mxCell id="-6-FvPc2AzdQoyf2nDTh-43" value="9. rebalance方法调用&lt;div&gt;update_expert_location方法更新专家信息&lt;/div&gt;" style="edgeLabel;html=1;align=center;verticalAlign=middle;resizable=0;points=[];" vertex="1" connectable="0" parent="-6-FvPc2AzdQoyf2nDTh-42">
          <mxGeometry x="-0.1366" relative="1" as="geometry">
            <mxPoint as="offset" />
          </mxGeometry>
        </mxCell>
        <mxCell id="-6-FvPc2AzdQoyf2nDTh-44" value="" style="endArrow=classic;html=1;rounded=0;entryX=0;entryY=0.5;entryDx=0;entryDy=0;exitX=0.984;exitY=0.049;exitDx=0;exitDy=0;exitPerimeter=0;" edge="1" parent="1" source="-6-FvPc2AzdQoyf2nDTh-28" target="-6-FvPc2AzdQoyf2nDTh-41">
          <mxGeometry width="50" height="50" relative="1" as="geometry">
            <mxPoint x="60" y="2490" as="sourcePoint" />
            <mxPoint x="110" y="2440" as="targetPoint" />
          </mxGeometry>
        </mxCell>
        <mxCell id="-6-FvPc2AzdQoyf2nDTh-50" value="2.初始化分布式系统专家位置信息" style="edgeLabel;html=1;align=center;verticalAlign=middle;resizable=0;points=[];" vertex="1" connectable="0" parent="-6-FvPc2AzdQoyf2nDTh-44">
          <mxGeometry x="-0.0767" y="4" relative="1" as="geometry">
            <mxPoint y="1" as="offset" />
          </mxGeometry>
        </mxCell>
        <mxCell id="-6-FvPc2AzdQoyf2nDTh-45" value="&lt;font style=&quot;font-size: 18px;&quot;&gt;eplb/expert_location_updater.py&lt;/font&gt;&lt;div&gt;&lt;span style=&quot;font-size: 18px;&quot;&gt;&lt;br&gt;&lt;/span&gt;&lt;/div&gt;&lt;div style=&quot;text-align: left;&quot;&gt;&lt;font style=&quot;font-size: 12px;&quot;&gt;ExpertLocationUpdater类&lt;/font&gt;&lt;/div&gt;&lt;div style=&quot;text-align: left;&quot;&gt;&lt;font style=&quot;font-size: 12px;&quot;&gt;update方法 -&amp;gt; _update_expert_weights/&lt;/font&gt;&lt;/div&gt;&lt;div&gt;&lt;div style=&quot;text-align: left;&quot;&gt;&lt;span style=&quot;background-color: transparent; color: light-dark(rgb(0, 0, 0), rgb(255, 255, 255));&quot;&gt;ExpertLocationMetadata调用update方法&lt;/span&gt;&lt;/div&gt;&lt;div&gt;&lt;font style=&quot;font-size: 18px;&quot;&gt;&lt;br&gt;&lt;/font&gt;&lt;/div&gt;&lt;/div&gt;" style="rounded=1;whiteSpace=wrap;html=1;" vertex="1" parent="1">
          <mxGeometry x="-280" y="2170" width="350" height="160" as="geometry" />
        </mxCell>
        <mxCell id="-6-FvPc2AzdQoyf2nDTh-47" value="" style="endArrow=classic;html=1;rounded=0;exitX=0.5;exitY=0;exitDx=0;exitDy=0;entryX=0.5;entryY=1;entryDx=0;entryDy=0;" edge="1" parent="1" source="-6-FvPc2AzdQoyf2nDTh-28" target="-6-FvPc2AzdQoyf2nDTh-45">
          <mxGeometry width="50" height="50" relative="1" as="geometry">
            <mxPoint x="-330" y="2425" as="sourcePoint" />
            <mxPoint x="-280" y="2375" as="targetPoint" />
          </mxGeometry>
        </mxCell>
        <mxCell id="-6-FvPc2AzdQoyf2nDTh-48" value="10. 调用&lt;span style=&quot;font-size: 12px; text-align: left; text-wrap-mode: wrap; background-color: rgb(236, 236, 236);&quot;&gt;ExpertLocationUpdater.update方法实现专家的更新&lt;/span&gt;" style="edgeLabel;html=1;align=center;verticalAlign=middle;resizable=0;points=[];" vertex="1" connectable="0" parent="-6-FvPc2AzdQoyf2nDTh-47">
          <mxGeometry x="0.0653" y="-1" relative="1" as="geometry">
            <mxPoint as="offset" />
          </mxGeometry>
        </mxCell>
        <mxCell id="-6-FvPc2AzdQoyf2nDTh-51" value="" style="endArrow=classic;html=1;rounded=0;exitX=1;exitY=0.25;exitDx=0;exitDy=0;entryX=0.25;entryY=1;entryDx=0;entryDy=0;" edge="1" parent="1" source="-6-FvPc2AzdQoyf2nDTh-28" target="-6-FvPc2AzdQoyf2nDTh-41">
          <mxGeometry width="50" height="50" relative="1" as="geometry">
            <mxPoint x="150" y="2590" as="sourcePoint" />
            <mxPoint x="200" y="2540" as="targetPoint" />
          </mxGeometry>
        </mxCell>
        <mxCell id="-6-FvPc2AzdQoyf2nDTh-52" value="4.每次forward更新eplb推理次数" style="edgeLabel;html=1;align=center;verticalAlign=middle;resizable=0;points=[];" vertex="1" connectable="0" parent="-6-FvPc2AzdQoyf2nDTh-51">
          <mxGeometry x="-0.0231" y="1" relative="1" as="geometry">
            <mxPoint as="offset" />
          </mxGeometry>
        </mxCell>
        <mxCell id="-6-FvPc2AzdQoyf2nDTh-54" value="" style="endArrow=classic;html=1;rounded=0;entryX=0.011;entryY=0.948;entryDx=0;entryDy=0;entryPerimeter=0;exitX=1;exitY=0.5;exitDx=0;exitDy=0;" edge="1" parent="1" source="-6-FvPc2AzdQoyf2nDTh-26" target="-6-FvPc2AzdQoyf2nDTh-29">
          <mxGeometry width="50" height="50" relative="1" as="geometry">
            <mxPoint x="110" y="2790" as="sourcePoint" />
            <mxPoint x="160" y="2740" as="targetPoint" />
          </mxGeometry>
        </mxCell>
        <mxCell id="-6-FvPc2AzdQoyf2nDTh-55" value="7. 重新初始化专家位置信息" style="edgeLabel;html=1;align=center;verticalAlign=middle;resizable=0;points=[];" vertex="1" connectable="0" parent="-6-FvPc2AzdQoyf2nDTh-54">
          <mxGeometry x="0.0385" y="-1" relative="1" as="geometry">
            <mxPoint as="offset" />
          </mxGeometry>
        </mxCell>
        <mxCell id="-6-FvPc2AzdQoyf2nDTh-57" value="" style="endArrow=classic;html=1;rounded=0;entryX=0.037;entryY=-0.007;entryDx=0;entryDy=0;entryPerimeter=0;" edge="1" parent="1" target="-6-FvPc2AzdQoyf2nDTh-14">
          <mxGeometry width="50" height="50" relative="1" as="geometry">
            <mxPoint x="-357" y="2610" as="sourcePoint" />
            <mxPoint x="-30" y="3160" as="targetPoint" />
          </mxGeometry>
        </mxCell>
        <mxCell id="-6-FvPc2AzdQoyf2nDTh-58" value="5.1 调用_forward_raw函数&lt;div&gt;最终调用model.forward&lt;/div&gt;" style="edgeLabel;html=1;align=center;verticalAlign=middle;resizable=0;points=[];" vertex="1" connectable="0" parent="-6-FvPc2AzdQoyf2nDTh-57">
          <mxGeometry x="0.0937" y="-2" relative="1" as="geometry">
            <mxPoint as="offset" />
          </mxGeometry>
        </mxCell>
        <mxCell id="-6-FvPc2AzdQoyf2nDTh-59" value="" style="endArrow=classic;html=1;rounded=0;exitX=1;exitY=0.5;exitDx=0;exitDy=0;entryX=0;entryY=0.5;entryDx=0;entryDy=0;" edge="1" parent="1" source="-6-FvPc2AzdQoyf2nDTh-14" target="-6-FvPc2AzdQoyf2nDTh-18">
          <mxGeometry width="50" height="50" relative="1" as="geometry">
            <mxPoint x="90" y="3110" as="sourcePoint" />
            <mxPoint x="140" y="3060" as="targetPoint" />
          </mxGeometry>
        </mxCell>
        <mxCell id="-6-FvPc2AzdQoyf2nDTh-60" value="5.3 调用TopK类forward_cuda方法" style="edgeLabel;html=1;align=center;verticalAlign=middle;resizable=0;points=[];" vertex="1" connectable="0" parent="-6-FvPc2AzdQoyf2nDTh-59">
          <mxGeometry x="0.0043" y="1" relative="1" as="geometry">
            <mxPoint as="offset" />
          </mxGeometry>
        </mxCell>
        <mxCell id="-6-FvPc2AzdQoyf2nDTh-61" value="" style="endArrow=classic;html=1;rounded=0;exitX=0.985;exitY=1.007;exitDx=0;exitDy=0;exitPerimeter=0;" edge="1" parent="1" source="-6-FvPc2AzdQoyf2nDTh-14">
          <mxGeometry width="50" height="50" relative="1" as="geometry">
            <mxPoint x="90" y="3200" as="sourcePoint" />
            <mxPoint x="120" y="3250" as="targetPoint" />
          </mxGeometry>
        </mxCell>
        <mxCell id="-6-FvPc2AzdQoyf2nDTh-62" value="5.6 调用experts的forward方法&lt;div&gt;分为dispatch\moe\combine&lt;/div&gt;" style="edgeLabel;html=1;align=center;verticalAlign=middle;resizable=0;points=[];" vertex="1" connectable="0" parent="-6-FvPc2AzdQoyf2nDTh-61">
          <mxGeometry x="-0.187" relative="1" as="geometry">
            <mxPoint x="20" y="19" as="offset" />
          </mxGeometry>
        </mxCell>
        <mxCell id="-6-FvPc2AzdQoyf2nDTh-63" value="" style="endArrow=classic;html=1;rounded=0;entryX=0.5;entryY=0;entryDx=0;entryDy=0;exitX=1;exitY=0.5;exitDx=0;exitDy=0;" edge="1" parent="1" source="-6-FvPc2AzdQoyf2nDTh-45" target="-6-FvPc2AzdQoyf2nDTh-29">
          <mxGeometry width="50" height="50" relative="1" as="geometry">
            <mxPoint x="390" y="2750" as="sourcePoint" />
            <mxPoint x="440" y="2700" as="targetPoint" />
            <Array as="points">
              <mxPoint x="470" y="2120" />
              <mxPoint x="760" y="2210" />
            </Array>
          </mxGeometry>
        </mxCell>
        <mxCell id="-6-FvPc2AzdQoyf2nDTh-64" value="11. get_global_expert_location_metadata方法&lt;div&gt;同时调用update方法进行更新 【对所有的数据更新】&lt;/div&gt;" style="edgeLabel;html=1;align=center;verticalAlign=middle;resizable=0;points=[];" vertex="1" connectable="0" parent="-6-FvPc2AzdQoyf2nDTh-63">
          <mxGeometry x="0.0093" y="1" relative="1" as="geometry">
            <mxPoint as="offset" />
          </mxGeometry>
        </mxCell>
      </root>
    </mxGraphModel>
  </diagram>
</mxfile>
